<svg xmlns="http://www.w3.org/2000/svg" viewBox="0 0 64 64" fill="none">
  <defs>
    <linearGradient id="g1" x1="12" y1="8" x2="56" y2="56" gradientUnits="userSpaceOnUse">
      <stop offset="0" stop-color="#0ea5e9"/>
      <stop offset="1" stop-color="#38bdf8"/>
    </linearGradient>
    <linearGradient id="g2" x1="0" y1="0" x2="1" y2="1">
      <stop offset="0" stop-color="#fff" stop-opacity="0.9"/>
      <stop offset="1" stop-color="#fff" stop-opacity="0.6"/>
    </linearGradient>
    <filter id="s" x="-20%" y="-20%" width="140%" height="140%">
      <feDropShadow dx="0" dy="2" stdDeviation="2" flood-color="#0ea5e9" flood-opacity="0.25"/>
    </filter>
  </defs>

  <!-- Capsule background -->
  <rect x="6" y="6" width="52" height="52" rx="14" fill="url(#g1)"/>
  <rect x="6" y="6" width="52" height="52" rx="14" fill="#fff" opacity="0.08"/>

  <!-- Logic nodes + traces -->
  <g filter="url(#s)">
    <!-- Traces -->
    <path d="M18 40c6-8 12-8 18-16 4-5 8-6 10-6" stroke="url(#g2)" stroke-width="3" stroke-linecap="round"/>
    <path d="M18 24c8 0 14 6 20 12" stroke="url(#g2)" stroke-width="3" stroke-linecap="round"/>
    <!-- Nodes -->
    <circle cx="18" cy="24" r="3.3" fill="#fff"/>
    <circle cx="18" cy="40" r="3.3" fill="#fff"/>
    <circle cx="36" cy="24" r="3.3" fill="#fff"/>
    <circle cx="46" cy="18" r="3.3" fill="#fff"/>
  </g>

  <!-- Subtle gloss -->
  <path d="M12 14c0 0 6-6 20-6s20 6 20 6" stroke="#fff" stroke-opacity="0.25" stroke-width="4" stroke-linecap="round"/>
</svg>
